<svg xmlns="http://www.w3.org/2000/svg" width="2400" height="1350" viewBox="0 0 2400 1350" role="img" aria-label="Abstract digital score meter in gold/green">
  <defs>
    <linearGradient id="g0" x1="0" y1="0" x2="1" y2="1">
      <stop offset="0" stop-color="#05070c"/>
      <stop offset="1" stop-color="#0b1020"/>
    </linearGradient>
    <radialGradient id="goldGlow" cx="30%" cy="24%" r="70%">
      <stop offset="0" stop-color="rgba(212,175,55,.26)"/>
      <stop offset="0.55" stop-color="rgba(212,175,55,.08)"/>
      <stop offset="1" stop-color="rgba(212,175,55,0)"/>
    </radialGradient>
    <radialGradient id="blueGlow" cx="80%" cy="18%" r="70%">
      <stop offset="0" stop-color="rgba(120,180,255,.12)"/>
      <stop offset="1" stop-color="rgba(120,180,255,0)"/>
    </radialGradient>
    <filter id="blur" x="-20%" y="-20%" width="140%" height="140%">
      <feGaussianBlur stdDeviation="8"/>
    </filter>
  </defs>

  <rect width="2400" height="1350" fill="url(#g0)"/>
  <rect width="2400" height="1350" fill="url(#goldGlow)"/>
  <rect width="2400" height="1350" fill="url(#blueGlow)"/>

  <g opacity="0.8"><path d="M 310.6 -51.5 Q 811.5 266.5 727.1 726.3" stroke="rgba(243,210,122,0.106)" stroke-width="1.38" fill="none"/><path d="M 2502.6 472.6 Q 1255.0 436.0 -120.7 69.7" stroke="rgba(243,210,122,0.099)" stroke-width="1.00" fill="none"/><path d="M 184.0 1426.2 Q 34.2 1353.0 -188.6 957.1" stroke="rgba(243,210,122,0.110)" stroke-width="1.47" fill="none"/><path d="M 2018.9 420.0 Q 1613.3 357.4 1890.7 718.2" stroke="rgba(243,210,122,0.060)" stroke-width="1.84" fill="none"/><path d="M 706.2 1162.7 Q 124.3 1355.5 57.4 1290.9" stroke="rgba(243,210,122,0.117)" stroke-width="1.07" fill="none"/><path d="M 2223.2 50.9 Q 1300.0 377.9 131.9 272.9" stroke="rgba(243,210,122,0.128)" stroke-width="1.06" fill="none"/><path d="M 1102.5 1297.2 Q 1667.6 1146.8 2194.3 1305.3" stroke="rgba(243,210,122,0.131)" stroke-width="1.69" fill="none"/><path d="M 2202.2 421.8 Q 1608.7 474.1 291.3 345.0" stroke="rgba(243,210,122,0.111)" stroke-width="1.61" fill="none"/><path d="M 1089.1 241.6 Q 1091.8 541.4 754.2 873.6" stroke="rgba(243,210,122,0.086)" stroke-width="1.54" fill="none"/><path d="M 1333.8 1062.5 Q 1248.8 607.3 467.9 310.3" stroke="rgba(243,210,122,0.102)" stroke-width="1.31" fill="none"/><path d="M 512.4 437.4 Q 598.0 998.2 1283.7 1166.0" stroke="rgba(243,210,122,0.138)" stroke-width="1.86" fill="none"/><path d="M 1523.1 989.6 Q 1815.9 1253.0 2448.7 1436.6" stroke="rgba(243,210,122,0.101)" stroke-width="2.00" fill="none"/><path d="M 209.6 134.1 Q 1019.3 533.3 2442.6 718.8" stroke="rgba(243,210,122,0.106)" stroke-width="1.62" fill="none"/><path d="M 1399.9 262.6 Q 1195.2 443.3 342.3 426.7" stroke="rgba(243,210,122,0.079)" stroke-width="1.69" fill="none"/></g>
  <g><circle cx="2135.8" cy="873.9" r="3.7" fill="rgba(212,175,55,0.115)"/><circle cx="2062.6" cy="1065.5" r="5.9" fill="rgba(212,175,55,0.094)"/><circle cx="265.6" cy="1015.5" r="5.7" fill="rgba(212,175,55,0.065)"/><circle cx="996.2" cy="174.0" r="4.8" fill="rgba(212,175,55,0.093)"/><circle cx="440.4" cy="763.1" r="3.0" fill="rgba(212,175,55,0.104)"/><circle cx="77.5" cy="1089.7" r="5.7" fill="rgba(212,175,55,0.107)"/><circle cx="928.7" cy="202.0" r="4.1" fill="rgba(212,175,55,0.111)"/><circle cx="2046.7" cy="431.6" r="3.5" fill="rgba(212,175,55,0.080)"/><circle cx="1134.3" cy="679.9" r="3.2" fill="rgba(212,175,55,0.118)"/><circle cx="2254.4" cy="568.8" r="3.9" fill="rgba(212,175,55,0.130)"/><circle cx="2077.0" cy="1220.9" r="4.8" fill="rgba(212,175,55,0.131)"/><circle cx="59.7" cy="468.0" r="5.0" fill="rgba(212,175,55,0.106)"/><circle cx="1002.8" cy="808.3" r="4.3" fill="rgba(212,175,55,0.060)"/><circle cx="2255.2" cy="388.7" r="3.8" fill="rgba(212,175,55,0.128)"/><circle cx="597.0" cy="1107.1" r="2.6" fill="rgba(212,175,55,0.067)"/><circle cx="1922.3" cy="1335.5" r="4.2" fill="rgba(212,175,55,0.062)"/><circle cx="1813.8" cy="580.2" r="3.6" fill="rgba(212,175,55,0.110)"/><circle cx="740.9" cy="456.2" r="4.4" fill="rgba(212,175,55,0.056)"/><circle cx="131.7" cy="227.0" r="4.9" fill="rgba(212,175,55,0.116)"/><circle cx="1301.4" cy="1082.8" r="5.8" fill="rgba(212,175,55,0.120)"/><circle cx="633.4" cy="233.1" r="5.0" fill="rgba(212,175,55,0.110)"/><circle cx="263.6" cy="233.2" r="3.6" fill="rgba(212,175,55,0.072)"/><circle cx="413.0" cy="888.9" r="5.8" fill="rgba(212,175,55,0.107)"/><circle cx="1322.1" cy="761.2" r="5.1" fill="rgba(212,175,55,0.132)"/><circle cx="1400.7" cy="1135.9" r="2.2" fill="rgba(212,175,55,0.110)"/><circle cx="1847.5" cy="813.3" r="3.1" fill="rgba(212,175,55,0.126)"/><circle cx="558.2" cy="743.5" r="3.6" fill="rgba(212,175,55,0.062)"/><circle cx="584.6" cy="380.5" r="4.4" fill="rgba(212,175,55,0.124)"/><circle cx="918.3" cy="276.5" r="3.1" fill="rgba(212,175,55,0.065)"/><circle cx="62.5" cy="934.7" r="2.8" fill="rgba(212,175,55,0.103)"/><circle cx="2124.8" cy="1343.9" r="3.5" fill="rgba(212,175,55,0.118)"/><circle cx="2126.9" cy="1298.4" r="3.0" fill="rgba(212,175,55,0.128)"/><circle cx="2224.1" cy="110.7" r="4.0" fill="rgba(212,175,55,0.108)"/><circle cx="1927.2" cy="1228.9" r="4.3" fill="rgba(212,175,55,0.051)"/><circle cx="950.6" cy="733.3" r="4.4" fill="rgba(212,175,55,0.135)"/><circle cx="1579.7" cy="724.3" r="5.9" fill="rgba(212,175,55,0.126)"/><circle cx="1959.1" cy="124.7" r="3.4" fill="rgba(212,175,55,0.066)"/><circle cx="993.3" cy="69.0" r="3.9" fill="rgba(212,175,55,0.118)"/></g>

  <g filter="url(#blur)" opacity="0.9">
    <circle cx="1752.0" cy="621.0" r="210" fill="rgba(255,255,255,.04)"/>
  </g>

  <g><circle cx="1752.0" cy="621.0" r="160" fill="none" stroke="rgba(212,175,55,0.180)" stroke-width="1.2"/><circle cx="1752.0" cy="621.0" r="215" fill="none" stroke="rgba(212,175,55,0.150)" stroke-width="1.2"/><circle cx="1752.0" cy="621.0" r="270" fill="none" stroke="rgba(212,175,55,0.120)" stroke-width="1.2"/><circle cx="1752.0" cy="621.0" r="325" fill="none" stroke="rgba(212,175,55,0.090)" stroke-width="1.2"/></g>

  <g>
    <rect x="1562.0" y="555.0" width="380" height="132" rx="26" fill="rgba(255,255,255,.05)" stroke="rgba(255,255,255,.10)"/>
    <text x="1752.0" y="613.0" text-anchor="middle" font-family="ui-sans-serif,system-ui" font-size="50" fill="rgba(245,247,255,.92)" letter-spacing="2">W3</text>
    <text x="1752.0" y="655.0" text-anchor="middle" font-family="ui-sans-serif,system-ui" font-size="22" fill="rgba(245,247,255,.60)" letter-spacing="1">w3.credit</text>
  </g>

  <g opacity="0.9">
    <circle cx="432.0" cy="1053.0" r="280" fill="rgba(212,175,55,.06)"/>
    <circle cx="432.0" cy="1053.0" r="279" fill="none" stroke="rgba(255,255,255,.06)"/>
  </g>
</svg>